<svg width="21" height="21" viewBox="0 0 21 21" fill="none" xmlns="http://www.w3.org/2000/svg">
<path d="M10.9999 0.5C9.68665 0.5 8.38629 0.758658 7.17303 1.2612C5.95978 1.76375 4.85738 2.50035 3.9288 3.42893C2.05343 5.3043 0.999866 7.84784 0.999866 10.5C0.991124 12.8091 1.79066 15.0485 3.25987 16.83L1.25987 18.83C1.12111 18.9706 1.02711 19.1492 0.989738 19.3432C0.952364 19.5372 0.973287 19.7379 1.04987 19.92C1.13292 20.0999 1.26757 20.2511 1.43671 20.3544C1.60586 20.4577 1.80187 20.5083 1.99987 20.5H10.9999C13.652 20.5 16.1956 19.4464 18.0709 17.5711C19.9463 15.6957 20.9999 13.1522 20.9999 10.5C20.9999 7.84784 19.9463 5.3043 18.0709 3.42893C16.1956 1.55357 13.652 0.5 10.9999 0.5ZM10.9999 18.5H4.40987L5.33987 17.57C5.52612 17.3826 5.63066 17.1292 5.63066 16.865C5.63066 16.6008 5.52612 16.3474 5.33987 16.16C4.03045 14.852 3.21504 13.1305 3.03256 11.2888C2.85007 9.44705 3.31181 7.59901 4.33909 6.05952C5.36638 4.52004 6.89566 3.38436 8.66638 2.84597C10.4371 2.30759 12.3397 2.3998 14.0501 3.10691C15.7604 3.81402 17.1727 5.09227 18.0463 6.72389C18.9199 8.35551 19.2007 10.2395 18.841 12.055C18.4813 13.8705 17.5032 15.505 16.0734 16.6802C14.6436 17.8554 12.8506 18.4985 10.9999 18.5ZM15.9999 9.5H5.99987C5.73465 9.5 5.4803 9.60536 5.29276 9.79289C5.10522 9.98043 4.99987 10.2348 4.99987 10.5C4.99987 10.7652 5.10522 11.0196 5.29276 11.2071C5.4803 11.3946 5.73465 11.5 5.99987 11.5H15.9999C16.2651 11.5 16.5194 11.3946 16.707 11.2071C16.8945 11.0196 16.9999 10.7652 16.9999 10.5C16.9999 10.2348 16.8945 9.98043 16.707 9.79289C16.5194 9.60536 16.2651 9.5 15.9999 9.5ZM13.9999 13.5H7.99987C7.73465 13.5 7.4803 13.6054 7.29276 13.7929C7.10522 13.9804 6.99987 14.2348 6.99987 14.5C6.99987 14.7652 7.10522 15.0196 7.29276 15.2071C7.4803 15.3946 7.73465 15.5 7.99987 15.5H13.9999C14.2651 15.5 14.5194 15.3946 14.707 15.2071C14.8945 15.0196 14.9999 14.7652 14.9999 14.5C14.9999 14.2348 14.8945 13.9804 14.707 13.7929C14.5194 13.6054 14.2651 13.5 13.9999 13.5ZM7.99987 7.5H13.9999C14.2651 7.5 14.5194 7.39464 14.707 7.20711C14.8945 7.01957 14.9999 6.76522 14.9999 6.5C14.9999 6.23478 14.8945 5.98043 14.707 5.79289C14.5194 5.60536 14.2651 5.5 13.9999 5.5H7.99987C7.73465 5.5 7.4803 5.60536 7.29276 5.79289C7.10522 5.98043 6.99987 6.23478 6.99987 6.5C6.99987 6.76522 7.10522 7.01957 7.29276 7.20711C7.4803 7.39464 7.73465 7.5 7.99987 7.5Z" fill="#E58934"/>
</svg>
