<svg width="16" height="8" viewBox="0 0 16 8" fill="none" xmlns="http://www.w3.org/2000/svg">
<path d="M15.0315 5.8047C14.9672 5.84134 14.8964 5.86494 14.823 5.87417C14.7496 5.8834 14.6751 5.87806 14.6038 5.85847C14.5325 5.83887 14.4657 5.80541 14.4074 5.75999C14.349 5.71457 14.3002 5.65808 14.2636 5.59376L12.9277 3.25939C12.151 3.78454 11.2943 4.18015 10.3908 4.43079L10.8036 6.9072C10.8157 6.9801 10.8134 7.05469 10.7968 7.1267C10.7801 7.19871 10.7494 7.26673 10.7064 7.32687C10.6635 7.38701 10.6091 7.4381 10.5464 7.4772C10.4836 7.51631 10.4138 7.54267 10.3409 7.55478C10.3109 7.55969 10.2806 7.56227 10.2502 7.56251C10.1171 7.56231 9.98845 7.51494 9.887 7.42882C9.78556 7.34269 9.71794 7.2234 9.69615 7.09212L9.29044 4.66072C8.43488 4.77978 7.56695 4.77978 6.71138 4.66072L6.30568 7.09212C6.28385 7.22364 6.21602 7.34312 6.11428 7.42927C6.01255 7.51543 5.88352 7.56265 5.75021 7.56251C5.71912 7.56238 5.68808 7.5598 5.6574 7.55478C5.58448 7.54267 5.51467 7.51631 5.45195 7.4772C5.38923 7.4381 5.33483 7.38701 5.29186 7.32687C5.24889 7.26673 5.2182 7.19871 5.20154 7.1267C5.18487 7.05469 5.18256 6.9801 5.19474 6.9072L5.60958 4.43079C4.70651 4.17935 3.85022 3.78303 3.07411 3.25728L1.7424 5.59376C1.70546 5.65812 1.65621 5.71457 1.59746 5.7599C1.53871 5.80522 1.47161 5.83853 1.39998 5.85792C1.32836 5.87732 1.25361 5.88241 1.18002 5.87292C1.10643 5.86342 1.03543 5.83953 0.971068 5.80259C0.90671 5.76566 0.850257 5.71641 0.804932 5.65766C0.759607 5.5989 0.726298 5.5318 0.706906 5.46018C0.687515 5.38855 0.682421 5.31381 0.691915 5.24022C0.701409 5.16662 0.725305 5.09562 0.76224 5.03126L2.16849 2.57032C1.67454 2.14358 1.22034 1.6729 0.811458 1.16407C0.760467 1.10714 0.721613 1.04041 0.697268 0.967966C0.672923 0.895517 0.663597 0.818867 0.669861 0.742694C0.676125 0.666521 0.697846 0.592425 0.733699 0.524926C0.769552 0.457427 0.818784 0.397943 0.878391 0.350104C0.937998 0.302266 1.00673 0.267077 1.08039 0.246684C1.15405 0.226292 1.23109 0.221124 1.30681 0.231498C1.38253 0.241871 1.45535 0.267567 1.52081 0.307017C1.58627 0.346467 1.64301 0.398844 1.68755 0.46095C2.85474 1.90517 4.89661 3.62501 8.00021 3.62501C11.1038 3.62501 13.1457 1.90306 14.3129 0.46095C14.3569 0.397572 14.4135 0.343935 14.4792 0.303374C14.5448 0.262813 14.6181 0.236197 14.6945 0.225181C14.7709 0.214165 14.8487 0.218986 14.9232 0.239343C14.9976 0.259699 15.0671 0.295157 15.1272 0.343509C15.1874 0.391862 15.2369 0.452074 15.2728 0.520402C15.3087 0.588729 15.3301 0.663708 15.3358 0.740675C15.3414 0.817643 15.3312 0.894951 15.3057 0.967791C15.2802 1.04063 15.24 1.10744 15.1876 1.16407C14.7787 1.6729 14.3245 2.14358 13.8305 2.57032L15.2368 5.03126C15.2745 5.09541 15.2992 5.16642 15.3093 5.24016C15.3194 5.3139 15.3147 5.38892 15.2957 5.46086C15.2766 5.5328 15.2434 5.60024 15.198 5.65926C15.1527 5.71828 15.0961 5.76772 15.0315 5.8047Z" fill="white"/>
</svg>
