<svg width="22" height="20" viewBox="0 0 22 20" fill="none" xmlns="http://www.w3.org/2000/svg">
<path d="M9 4H14M9 1H17M6 7.5V12C6 12.943 6 13.414 5.707 13.707C5.414 14 4.943 14 4 14H3C2.057 14 1.586 14 1.293 13.707C1 13.414 1 12.943 1 12V9.5C1 8.557 1 8.086 1.293 7.793C1.586 7.5 2.057 7.5 3 7.5H6ZM6 7.5H11M14.59 15.74C13.961 16.162 12.313 17.022 13.317 18.098C13.807 18.624 14.354 19 15.04 19H18.96C19.646 19 20.193 18.624 20.683 18.098C21.687 17.022 20.039 16.162 19.41 15.741C18.699 15.2582 17.8594 15.0001 17 15.0001C16.1406 15.0001 15.301 15.2572 14.59 15.74ZM19 10.5C19 11.0304 18.7893 11.5391 18.4142 11.9142C18.0391 12.2893 17.5304 12.5 17 12.5C16.4696 12.5 15.9609 12.2893 15.5858 11.9142C15.2107 11.5391 15 11.0304 15 10.5C15 9.96957 15.2107 9.46086 15.5858 9.08579C15.9609 8.71071 16.4696 8.5 17 8.5C17.5304 8.5 18.0391 8.71071 18.4142 9.08579C18.7893 9.46086 19 9.96957 19 10.5ZM5.5 3C5.5 3.53043 5.28929 4.03914 4.91421 4.41421C4.53914 4.78929 4.03043 5 3.5 5C2.96957 5 2.46086 4.78929 2.08579 4.41421C1.71071 4.03914 1.5 3.53043 1.5 3C1.5 2.46957 1.71071 1.96086 2.08579 1.58579C2.46086 1.21071 2.96957 1 3.5 1C4.03043 1 4.53914 1.21071 4.91421 1.58579C5.28929 1.96086 5.5 2.46957 5.5 3Z" stroke="white" stroke-width="1.5" stroke-linecap="round" stroke-linejoin="round"/>
</svg>
