<svg width="17" height="18" viewBox="0 0 17 18" fill="none" xmlns="http://www.w3.org/2000/svg">
<path d="M2 17.5C1.45 17.5 0.979335 17.3043 0.588002 16.913C0.196668 16.5217 0.000668362 16.0507 1.69491e-06 15.5C-0.000664972 14.9493 0.195335 14.4787 0.588002 14.088C0.980668 13.6973 1.45133 13.5013 2 13.5C2.54867 13.4987 3.01967 13.6947 3.413 14.088C3.80634 14.4813 4.002 14.952 4 15.5C3.998 16.048 3.80234 16.519 3.413 16.913C3.02367 17.307 2.55267 17.5027 2 17.5ZM14 17.5C14 15.55 13.6333 13.7293 12.9 12.038C12.1667 10.3467 11.1667 8.86733 9.9 7.6C8.63334 6.33267 7.15434 5.33267 5.463 4.6C3.77167 3.86733 1.95067 3.50067 1.69491e-06 3.5V0.5C2.36667 0.5 4.575 0.941666 6.625 1.825C8.675 2.70833 10.475 3.925 12.025 5.475C13.575 7.025 14.7917 8.825 15.675 10.875C16.5583 12.925 17 15.1333 17 17.5H14ZM8 17.5C8 16.3833 7.79167 15.3457 7.375 14.387C6.95834 13.4283 6.38334 12.5827 5.65 11.85C4.91667 11.1173 4.071 10.5423 3.113 10.125C2.155 9.70767 1.11733 9.49933 1.69491e-06 9.5V6.5C1.53333 6.5 2.96267 6.78767 4.288 7.363C5.61334 7.93833 6.77567 8.72567 7.775 9.725C8.77433 10.7243 9.562 11.887 10.138 13.213C10.714 14.539 11.0013 15.968 11 17.5H8Z" fill="white"/>
</svg>
