<svg width="21" height="19" viewBox="0 0 21 19" fill="none" xmlns="http://www.w3.org/2000/svg">
<path d="M9.89087 3.72644L10.5 5.36195L11.1091 3.72644C11.7765 1.93453 13.526 0.65 15.5846 0.65C18.2251 0.65 20.35 2.75864 20.35 5.34124C20.35 9.36765 17.8894 12.6195 15.3175 14.9115C14.0405 16.0496 12.7606 16.9283 11.7989 17.5227C11.3187 17.8195 10.9197 18.0443 10.6423 18.194C10.5905 18.222 10.543 18.2473 10.5 18.27C10.457 18.2473 10.4095 18.222 10.3577 18.194C10.0803 18.0442 9.68127 17.8195 9.20111 17.5227C8.23945 16.9283 6.95952 16.0495 5.68246 14.9114C3.11056 12.6194 0.65 9.36754 0.65 5.34124C0.65 2.75864 2.77494 0.65 5.41536 0.65C7.47396 0.65 9.2235 1.93453 9.89087 3.72644Z" stroke="#E58934" stroke-width="1.3"/>
</svg>
