<svg width="148" height="27" viewBox="0 0 148 27" fill="none" xmlns="http://www.w3.org/2000/svg">
<g clip-path="url(#clip0_10_97)">
<path d="M0.583984 2.84875H7.18396C8.70279 2.84875 9.93396 4.07997 9.93396 5.59875V12.1988H3.33398C1.8152 12.1988 0.583984 10.9675 0.583984 9.44876V2.84875Z" fill="#E58934"/>
<path d="M22.5839 2.84875H15.9839C14.4651 2.84875 13.2339 4.07997 13.2339 5.59875V12.1988H19.8339C21.3527 12.1988 22.5839 10.9675 22.5839 9.44876V2.84875Z" fill="#E58934"/>
<path d="M9.93396 15.4988H3.33398C1.8152 15.4988 0.583984 16.73 0.583984 18.2488V24.8488H7.18396C8.70279 24.8488 9.93396 23.6175 9.93396 22.0988V15.4988Z" fill="#E58934"/>
<path d="M13.2339 15.4988H19.8339C21.3527 15.4988 22.5839 16.73 22.5839 18.2488V24.8488H15.9839C14.4651 24.8488 13.2339 23.6175 13.2339 22.0988V15.4988Z" fill="#E58934"/>
</g>
<path d="M39.7142 14.7848H36.1462V18.8488H33.6662V8.06475H40.2422V10.0328H36.1462V12.8168H39.7142V14.7848ZM44.096 18.8488H41.76V10.7368H44.096V18.8488ZM43.888 7.42475C44.1546 7.69142 44.288 8.01142 44.288 8.38475C44.288 8.75809 44.1546 9.07809 43.888 9.34475C43.6213 9.61142 43.3013 9.74475 42.928 9.74475C42.5546 9.74475 42.2346 9.61142 41.968 9.34475C41.7013 9.07809 41.568 8.75809 41.568 8.38475C41.568 8.01142 41.7013 7.69142 41.968 7.42475C42.2346 7.15809 42.5546 7.02475 42.928 7.02475C43.3013 7.02475 43.6213 7.15809 43.888 7.42475ZM53.5418 18.8488H51.2058V14.0168C51.2058 13.5368 51.0938 13.1741 50.8698 12.9288C50.6458 12.6728 50.3312 12.5448 49.9258 12.5448C49.4992 12.5448 49.1418 12.7154 48.8538 13.0568C48.5765 13.3874 48.4378 13.8888 48.4378 14.5608V18.8488H46.1018V10.7368H48.4378V12.1128C48.6405 11.6648 48.9498 11.3128 49.3658 11.0568C49.7925 10.7901 50.2992 10.6568 50.8858 10.6568C51.7178 10.6568 52.3685 10.9074 52.8378 11.4088C53.3072 11.8994 53.5418 12.6248 53.5418 13.5848V18.8488ZM57.3511 14.8168C57.3511 15.4674 57.5218 15.9954 57.8631 16.4008C58.2044 16.7954 58.6204 16.9928 59.1111 16.9928C59.6444 16.9928 60.0764 16.7848 60.4071 16.3688C60.7378 15.9528 60.9031 15.3981 60.9031 14.7048C60.9031 14.0328 60.7218 13.5101 60.3591 13.1368C60.0071 12.7634 59.5858 12.5768 59.0951 12.5768C58.6044 12.5768 58.1884 12.7741 57.8471 13.1688C57.5164 13.5634 57.3511 14.1128 57.3511 14.8168ZM63.2391 18.8488H60.9031V17.5848C60.3591 18.4914 59.5484 18.9448 58.4711 18.9448C57.4151 18.9448 56.5671 18.5341 55.9271 17.7128C55.2978 16.8914 54.9831 15.9101 54.9831 14.7688C54.9831 13.4888 55.3138 12.4808 55.9751 11.7448C56.6364 11.0088 57.4738 10.6408 58.4871 10.6408C59.5431 10.6408 60.3484 11.0888 60.9031 11.9848V7.53675H63.2391V18.8488ZM67.5803 18.8488H65.2443V10.7368H67.5803V18.8488ZM67.3723 7.42475C67.639 7.69142 67.7723 8.01142 67.7723 8.38475C67.7723 8.75809 67.639 9.07809 67.3723 9.34475C67.1057 9.61142 66.7857 9.74475 66.4123 9.74475C66.039 9.74475 65.719 9.61142 65.4523 9.34475C65.1857 9.07809 65.0523 8.75809 65.0523 8.38475C65.0523 8.01142 65.1857 7.69142 65.4523 7.42475C65.719 7.15809 66.039 7.02475 66.4123 7.02475C66.7857 7.02475 67.1057 7.15809 67.3723 7.42475ZM77.0262 18.8488H74.6902V14.0168C74.6902 13.5368 74.5782 13.1741 74.3542 12.9288C74.1302 12.6728 73.8156 12.5448 73.4102 12.5448C72.9836 12.5448 72.6262 12.7154 72.3382 13.0568C72.0609 13.3874 71.9222 13.8888 71.9222 14.5608V18.8488H69.5862V10.7368H71.9222V12.1128C72.1249 11.6648 72.4342 11.3128 72.8502 11.0568C73.2769 10.7901 73.7836 10.6568 74.3702 10.6568C75.2022 10.6568 75.8529 10.9074 76.3222 11.4088C76.7916 11.8994 77.0262 12.6248 77.0262 13.5848V18.8488ZM86.3875 18.0648C86.3875 19.3661 85.9981 20.3421 85.2195 20.9928C84.4408 21.6541 83.4648 21.9848 82.2915 21.9848C81.1501 21.9848 80.1528 21.7821 79.2995 21.3768V18.9928C80.0461 19.5901 80.9635 19.8888 82.0515 19.8888C82.7555 19.8888 83.2675 19.7394 83.5875 19.4408C83.9075 19.1421 84.0675 18.6728 84.0675 18.0328V17.4888C83.5981 18.2141 82.8515 18.5768 81.8275 18.5768C80.9315 18.5768 80.1581 18.2461 79.5075 17.5848C78.8675 16.9234 78.5475 15.9421 78.5475 14.6408C78.5475 13.4888 78.8568 12.5394 79.4755 11.7928C80.1048 11.0354 80.9261 10.6568 81.9395 10.6568C82.8995 10.6568 83.6088 11.0408 84.0675 11.8088V10.7368H86.3875V18.0648ZM80.9795 14.6568C80.9795 15.3288 81.1075 15.8408 81.3635 16.1928C81.6195 16.5448 81.9875 16.7208 82.4675 16.7208C82.9688 16.7208 83.3581 16.5341 83.6355 16.1608C83.9235 15.7768 84.0675 15.3181 84.0675 14.7848C84.0675 13.3341 83.5395 12.6088 82.4835 12.6088C82.0141 12.6088 81.6461 12.7901 81.3795 13.1528C81.1128 13.5154 80.9795 14.0168 80.9795 14.6568Z" fill="white"/>
<path d="M96.9628 18.8488H92.3068V8.06475H96.4988C97.6828 8.06475 98.5842 8.34742 99.2028 8.91275C99.8215 9.46742 100.131 10.1768 100.131 11.0408C100.131 11.6061 99.9815 12.1021 99.6828 12.5288C99.3842 12.9554 98.9948 13.2434 98.5148 13.3928C99.7628 13.7661 100.387 14.6088 100.387 15.9208C100.387 16.7741 100.078 17.4781 99.4588 18.0328C98.8508 18.5768 98.0188 18.8488 96.9628 18.8488ZM96.0828 10.0328H94.7708V12.4488H95.6828C96.3228 12.4488 96.8028 12.3314 97.1228 12.0968C97.4535 11.8621 97.6188 11.5528 97.6188 11.1688C97.6188 10.4114 97.1068 10.0328 96.0828 10.0328ZM96.0828 14.3848H94.7708V16.8808H96.0668C97.2828 16.8808 97.8908 16.4648 97.8908 15.6328C97.8908 14.8008 97.2882 14.3848 96.0828 14.3848ZM104.89 17.2488C105.221 17.2488 105.477 17.1474 105.658 16.9448C105.84 16.7421 105.93 16.4648 105.93 16.1128V15.5208H105.178C104.784 15.5208 104.48 15.6061 104.266 15.7768C104.053 15.9474 103.946 16.1661 103.946 16.4328C103.946 16.9768 104.261 17.2488 104.89 17.2488ZM106.042 17.8568C105.701 18.5501 105.029 18.8968 104.026 18.8968C103.237 18.8968 102.618 18.6728 102.17 18.2248C101.733 17.7768 101.514 17.2168 101.514 16.5448C101.514 15.7661 101.797 15.1634 102.362 14.7368C102.938 14.2994 103.786 14.0808 104.906 14.0808H105.93V13.5208C105.93 12.8381 105.477 12.4968 104.57 12.4968C103.696 12.4968 102.885 12.7421 102.138 13.2328V11.1368C102.778 10.7741 103.701 10.5928 104.906 10.5928C106.058 10.5928 106.917 10.8434 107.482 11.3448C108.048 11.8354 108.33 12.6034 108.33 13.6488V18.8488H106.042V17.8568ZM112.58 18.8488H110.244V7.53675H112.58V18.8488ZM117.562 17.2488C117.893 17.2488 118.149 17.1474 118.33 16.9448C118.512 16.7421 118.602 16.4648 118.602 16.1128V15.5208H117.85C117.456 15.5208 117.152 15.6061 116.938 15.7768C116.725 15.9474 116.618 16.1661 116.618 16.4328C116.618 16.9768 116.933 17.2488 117.562 17.2488ZM118.714 17.8568C118.373 18.5501 117.701 18.8968 116.698 18.8968C115.909 18.8968 115.29 18.6728 114.842 18.2248C114.405 17.7768 114.186 17.2168 114.186 16.5448C114.186 15.7661 114.469 15.1634 115.034 14.7368C115.61 14.2994 116.458 14.0808 117.578 14.0808H118.602V13.5208C118.602 12.8381 118.149 12.4968 117.242 12.4968C116.368 12.4968 115.557 12.7421 114.81 13.2328V11.1368C115.45 10.7741 116.373 10.5928 117.578 10.5928C118.73 10.5928 119.589 10.8434 120.154 11.3448C120.72 11.8354 121.002 12.6034 121.002 13.6488V18.8488H118.714V17.8568ZM130.276 18.8488H127.94V14.0168C127.94 13.5368 127.828 13.1741 127.604 12.9288C127.38 12.6728 127.066 12.5448 126.66 12.5448C126.234 12.5448 125.876 12.7154 125.588 13.0568C125.311 13.3874 125.172 13.8888 125.172 14.5608V18.8488H122.836V10.7368H125.172V12.1128C125.375 11.6648 125.684 11.3128 126.1 11.0568C126.527 10.7901 127.034 10.6568 127.62 10.6568C128.452 10.6568 129.103 10.9074 129.572 11.4088C130.042 11.8994 130.276 12.6248 130.276 13.5848V18.8488ZM138.181 18.4648C137.552 18.8061 136.795 18.9768 135.909 18.9768C134.693 18.9768 133.691 18.5928 132.901 17.8248C132.112 17.0461 131.717 16.0434 131.717 14.8168C131.739 13.6008 132.133 12.5981 132.901 11.8088C133.669 11.0088 134.72 10.6088 136.053 10.6088C136.875 10.6088 137.584 10.7634 138.181 11.0728V13.0728C137.616 12.7208 136.987 12.5448 136.293 12.5448C135.643 12.5448 135.115 12.7421 134.709 13.1368C134.304 13.5208 134.096 14.0808 134.085 14.8168C134.128 15.5314 134.341 16.0861 134.725 16.4808C135.109 16.8754 135.616 17.0728 136.245 17.0728C136.917 17.0728 137.563 16.8861 138.181 16.5128V18.4648ZM145.985 18.3848C145.431 18.7474 144.583 18.9288 143.441 18.9288C142.108 18.9288 141.068 18.5448 140.321 17.7768C139.585 16.9981 139.217 16.0008 139.217 14.7848C139.217 13.4941 139.575 12.4861 140.289 11.7608C141.015 11.0248 141.905 10.6568 142.961 10.6568C144.049 10.6568 144.908 10.9768 145.537 11.6168C146.167 12.2461 146.481 13.1901 146.481 14.4488C146.481 14.6941 146.439 15.1154 146.353 15.7128H141.585C141.745 16.1608 142.023 16.5074 142.417 16.7528C142.812 16.9981 143.287 17.1208 143.841 17.1208C144.663 17.1208 145.377 16.8914 145.985 16.4328V18.3848ZM143.057 12.4328C142.684 12.4328 142.353 12.5714 142.065 12.8488C141.777 13.1154 141.585 13.5154 141.489 14.0488H144.305V13.8568C144.231 12.9074 143.815 12.4328 143.057 12.4328Z" fill="#E58934"/>
<defs>
<clipPath id="clip0_10_97">
<rect width="22.55" height="22" fill="white" transform="translate(0.0761719 2.84875)"/>
</clipPath>
</defs>
</svg>
