<svg width="22" height="23" viewBox="0 0 22 23" fill="none" xmlns="http://www.w3.org/2000/svg">
<path d="M11 21.5C16.523 21.5 21 17.023 21 11.5C21 5.977 16.523 1.5 11 1.5C5.47701 1.5 1.00001 5.977 1.00001 11.5C0.997756 13.478 1.58395 15.4121 2.68401 17.056C2.80601 17.2375 2.57751 18.386 2.00001 20.5C4.11451 19.9225 5.26251 19.694 5.44401 19.816C7.08795 20.9161 9.02196 21.5023 11 21.5Z" stroke="#E58934" stroke-width="2" stroke-linejoin="round"/>
<path d="M7.30273 9.41002H15.6922M9.92373 7.36902L8.46673 15.631M13.4237 7.36902L11.9667 15.631M6.30273 13.5H14.6922" stroke="#E58934" stroke-width="2" stroke-linecap="round" stroke-linejoin="round"/>
</svg>
