<svg width="18" height="21" viewBox="0 0 18 21" fill="none" xmlns="http://www.w3.org/2000/svg">
<path d="M9.375 0.25C4.61925 0.25 0.75 4.11925 0.75 8.875C0.75 12.3617 2.83425 15.3655 5.8185 16.7238C5.7354 16.1288 5.67585 15.5309 5.64 14.9313C3.60975 13.6728 2.25 11.4325 2.25 8.875C2.25 4.9465 5.4465 1.75 9.375 1.75C13.3035 1.75 16.5 4.9465 16.5 8.875C16.5 11.4333 15.1402 13.6735 13.11 14.9305C13.0741 15.5301 13.0146 16.1281 12.9315 16.723C15.9165 15.3663 18 12.3625 18 8.875C18 4.11925 14.1307 0.25 9.375 0.25ZM9.375 3.25C6.273 3.25 3.75 5.773 3.75 8.875C3.75027 9.7144 3.93872 10.5431 4.3015 11.3C4.66427 12.057 5.19213 12.723 5.84625 13.249C6.025 12.7718 6.31958 12.3466 6.7035 12.0115C6.24828 11.6254 5.88249 11.1448 5.63151 10.6032C5.38052 10.0616 5.25034 9.47193 5.25 8.875C5.25 6.601 7.101 4.75 9.375 4.75C11.649 4.75 13.5 6.601 13.5 8.875C13.4997 9.47193 13.3695 10.0616 13.1185 10.6032C12.8675 11.1448 12.5017 11.6254 12.0465 12.0115C12.431 12.3461 12.7257 12.7715 12.9037 13.249C13.5579 12.723 14.0857 12.057 14.4485 11.3C14.8113 10.5431 14.9997 9.7144 15 8.875C15 5.773 12.477 3.25 9.375 3.25ZM9.375 6.25C7.9275 6.25 6.75 7.4275 6.75 8.875C6.75 10.3225 7.9275 11.5 9.375 11.5C10.8225 11.5 12 10.3225 12 8.875C12 7.4275 10.8225 6.25 9.375 6.25ZM9.375 7.75C9.99525 7.75 10.5 8.25475 10.5 8.875C10.5 9.49525 9.99525 10 9.375 10C8.75475 10 8.25 9.49525 8.25 8.875C8.25 8.25475 8.75475 7.75 9.375 7.75ZM9.375 12.25C7.00575 12.25 6.75 13.807 6.75 14.4767C6.75 15.7098 7.15275 18.1892 7.3725 19.1305C7.47 19.543 7.8585 20.5 9.375 20.5C10.8915 20.5 11.28 19.543 11.3775 19.1305C11.5972 18.1908 12 15.7098 12 14.4767C12 13.807 11.7443 12.25 9.375 12.25ZM9.375 13.75C10.5 13.75 10.5 14.17 10.5 14.4767C10.5 15.478 10.1475 17.7992 9.91725 18.7878C9.8985 18.8665 9.867 19 9.375 19C8.883 19 8.8515 18.8673 8.83275 18.7892C8.60325 17.8037 8.25 15.4788 8.25 14.4767C8.25 14.1692 8.25 13.75 9.375 13.75Z" fill="#E58934"/>
</svg>
