<svg width="33" height="21" viewBox="0 0 33 21" fill="none" xmlns="http://www.w3.org/2000/svg">
<path d="M1.2837 20.3002L0.793701 19.5302C1.2137 17.8969 1.75037 15.9602 2.4037 13.7202C3.05703 11.4335 3.75703 9.17023 4.5037 6.93023C5.29703 4.64356 6.06703 2.66023 6.8137 0.980225H15.3538C14.9338 2.98689 14.4904 5.1569 14.0238 7.49023C13.5571 9.77689 13.1371 12.0402 12.7638 14.2802C12.4371 16.4735 12.1571 18.4802 11.9238 20.3002H1.2837ZM31.69 0.980225L32.18 1.75023C31.76 3.43023 31.2232 5.39023 30.57 7.63023C29.9167 9.87023 29.2167 12.1335 28.4699 14.4202C27.7232 16.6602 26.9533 18.6202 26.16 20.3002H17.69C18.0167 18.8069 18.3433 17.2202 18.67 15.5402C18.9967 13.8135 19.2999 12.1102 19.58 10.4302C19.9067 8.70356 20.1867 7.0469 20.42 5.46023C20.7 3.82689 20.91 2.33356 21.0499 0.980225H31.69Z" fill="white"/>
</svg>
