<svg width="24" height="24" viewBox="0 0 24 24" fill="none" xmlns="http://www.w3.org/2000/svg">
<path d="M19.125 5.25244H8.625C7.7299 5.25244 6.87145 5.60802 6.23852 6.24096C5.60558 6.87389 5.25 7.73234 5.25 8.62744V19.1274C5.25 20.0226 5.60558 20.881 6.23852 21.5139C6.87145 22.1469 7.7299 22.5024 8.625 22.5024H19.125C20.0201 22.5024 20.8786 22.1469 21.5115 21.5139C22.1444 20.881 22.5 20.0226 22.5 19.1274V8.62744C22.5 7.73234 22.1444 6.87389 21.5115 6.24096C20.8786 5.60802 20.0201 5.25244 19.125 5.25244ZM17.6039 14.6274H14.625V17.6064C14.625 18.0099 14.3147 18.3564 13.9111 18.3765C13.8097 18.3814 13.7083 18.3656 13.6132 18.3302C13.5181 18.2948 13.4311 18.2404 13.3576 18.1703C13.2841 18.1003 13.2256 18.0161 13.1856 17.9228C13.1456 17.8294 13.125 17.729 13.125 17.6274V14.6274H10.1461C9.7425 14.6274 9.3961 14.3171 9.37594 13.9135C9.37105 13.8121 9.38681 13.7108 9.42224 13.6156C9.45768 13.5205 9.51207 13.4336 9.58211 13.3601C9.65214 13.2866 9.73637 13.228 9.82969 13.1881C9.92301 13.1481 10.0235 13.1275 10.125 13.1274H13.125V10.1485C13.125 9.74494 13.4353 9.39854 13.8389 9.37838C13.9403 9.37349 14.0417 9.38925 14.1368 9.42469C14.2319 9.46012 14.3189 9.51451 14.3924 9.58455C14.4659 9.65458 14.5244 9.73881 14.5644 9.83213C14.6044 9.92545 14.625 10.0259 14.625 10.1274V13.1274H17.625C17.7266 13.1273 17.8272 13.1479 17.9206 13.1878C18.014 13.2277 18.0984 13.2862 18.1685 13.3597C18.2387 13.4332 18.2931 13.5202 18.3286 13.6154C18.3641 13.7106 18.3799 13.8121 18.375 13.9135C18.3553 14.3171 18.0075 14.6274 17.6039 14.6274Z" fill="white"/>
<path d="M18.5569 3.75244C18.3235 3.0949 17.8924 2.52566 17.3228 2.12283C16.7531 1.71999 16.0727 1.50328 15.375 1.50244H4.875C3.97989 1.50244 3.12145 1.85802 2.48851 2.49096C1.85558 3.12389 1.5 3.98234 1.5 4.87744V15.3774C1.50084 16.0752 1.71755 16.7555 2.12038 17.3252C2.52322 17.8949 3.09246 18.326 3.75 18.5593V7.50244C3.75 6.50788 4.14509 5.55405 4.84835 4.85079C5.55161 4.14753 6.50544 3.75244 7.5 3.75244H18.5569Z" fill="white"/>
</svg>
