<svg width="26" height="24" viewBox="0 0 26 24" fill="none" xmlns="http://www.w3.org/2000/svg">
<path d="M9.79995 10.4601C11.073 10.4601 12.2939 9.9544 13.1941 9.05422C14.0942 8.15405 14.6 6.93315 14.6 5.66011C14.6 4.38707 14.0942 3.16617 13.1941 2.266C12.2939 1.36582 11.073 0.860107 9.79995 0.860107C8.52691 0.860107 7.30601 1.36582 6.40584 2.266C5.50566 3.16617 4.99995 4.38707 4.99995 5.66011C4.99995 6.93315 5.50566 8.15405 6.40584 9.05422C7.30601 9.9544 8.52691 10.4601 9.79995 10.4601ZM9.79995 13.6601C12.346 13.6601 14.7878 14.6715 16.5882 16.4719C18.3885 18.2722 19.4 20.714 19.4 23.2601H0.199951C0.199951 20.714 1.21138 18.2722 3.01173 16.4719C4.81208 14.6715 7.25387 13.6601 9.79995 13.6601ZM22.6 7.26011C22.6 6.83576 22.4314 6.4288 22.1313 6.12874C21.8313 5.82868 21.4243 5.66011 21 5.66011C20.5756 5.66011 20.1686 5.82868 19.8686 6.12874C19.5685 6.4288 19.4 6.83576 19.4 7.26011V8.86011H17.8C17.3756 8.86011 16.9686 9.02868 16.6686 9.32874C16.3685 9.6288 16.2 10.0358 16.2 10.4601C16.2 10.8845 16.3685 11.2914 16.6686 11.5915C16.9686 11.8915 17.3756 12.0601 17.8 12.0601H19.4V13.6601C19.4 14.0845 19.5685 14.4914 19.8686 14.7915C20.1686 15.0915 20.5756 15.2601 21 15.2601C21.4243 15.2601 21.8313 15.0915 22.1313 14.7915C22.4314 14.4914 22.6 14.0845 22.6 13.6601V12.0601H24.2C24.6243 12.0601 25.0313 11.8915 25.3313 11.5915C25.6314 11.2914 25.8 10.8845 25.8 10.4601C25.8 10.0358 25.6314 9.6288 25.3313 9.32874C25.0313 9.02868 24.6243 8.86011 24.2 8.86011H22.6V7.26011Z" fill="#F3E8FF"/>
</svg>
