<svg width="28" height="22" viewBox="0 0 28 22" fill="none" xmlns="http://www.w3.org/2000/svg">
<path d="M13.3 6.875C12.6078 6.875 11.9311 7.07661 11.3555 7.45432C10.7799 7.83204 10.3313 8.3689 10.0664 8.99703C9.80151 9.62515 9.7322 10.3163 9.86725 10.9831C10.0023 11.6499 10.3356 12.2624 10.8251 12.7432C11.3146 13.2239 11.9382 13.5513 12.6172 13.6839C13.2961 13.8166 13.9999 13.7485 14.6394 13.4883C15.2789 13.2282 15.8256 12.7876 16.2101 12.2223C16.5947 11.657 16.8 10.9924 16.8 10.3125C16.8 9.40082 16.4313 8.52648 15.7749 7.88182C15.1185 7.23716 14.2283 6.875 13.3 6.875ZM25.2 0H2.8C2.05808 0.00217625 1.34717 0.292606 0.822549 0.80786C0.297927 1.32311 0.00221582 2.02132 0 2.75V19.25C0.00221582 19.9787 0.297927 20.6769 0.822549 21.1921C1.34717 21.7074 2.05808 21.9978 2.8 22H25.2C25.9419 21.9978 26.6528 21.7074 27.1775 21.1921C27.7021 20.6769 27.9978 19.9787 28 19.25V2.75C27.9978 2.02132 27.7021 1.32311 27.1775 0.80786C26.6528 0.292606 25.9419 0.00217625 25.2 0ZM20.706 19.5387L16.632 15.5375C15.6332 16.1657 14.4721 16.4997 13.286 16.5C11.8783 16.5058 10.5086 16.0513 9.39294 15.2081C8.27725 14.365 7.47897 13.1812 7.12392 11.8433C6.76887 10.5054 6.87725 9.08951 7.43197 7.81878C7.98668 6.54805 8.9562 5.49476 10.1877 4.82493C11.4192 4.1551 12.8426 3.90682 14.2336 4.11923C15.6247 4.33164 16.9042 4.99266 17.8705 5.99809C18.8368 7.00352 19.4349 8.29619 19.5706 9.67234C19.7063 11.0485 19.3719 12.4299 18.62 13.5988L22.694 17.5863L20.706 19.5387Z" fill="white"/>
</svg>
