<svg width="22" height="18" viewBox="0 0 22 18" fill="none" xmlns="http://www.w3.org/2000/svg">
<path d="M19.25 0.375H2.75C2.25272 0.375 1.77581 0.572544 1.42417 0.924175C1.07254 1.27581 0.875 1.75272 0.875 2.25V12C0.875 12.4973 1.07254 12.9742 1.42417 13.3258C1.77581 13.6775 2.25272 13.875 2.75 13.875H19.25C19.7473 13.875 20.2242 13.6775 20.5758 13.3258C20.9275 12.9742 21.125 12.4973 21.125 12V2.25C21.125 1.75272 20.9275 1.27581 20.5758 0.924175C20.2242 0.572544 19.7473 0.375 19.25 0.375ZM18.875 11.625H3.125V2.625H18.875V11.625ZM21.125 16.5C21.125 16.7984 21.0065 17.0845 20.7955 17.2955C20.5845 17.5065 20.2984 17.625 20 17.625H2C1.70163 17.625 1.41548 17.5065 1.2045 17.2955C0.993526 17.0845 0.875 16.7984 0.875 16.5C0.875 16.2016 0.993526 15.9155 1.2045 15.7045C1.41548 15.4935 1.70163 15.375 2 15.375H20C20.2984 15.375 20.5845 15.4935 20.7955 15.7045C21.0065 15.9155 21.125 16.2016 21.125 16.5ZM8.75 9V5.25C8.74993 5.04915 8.80364 4.85194 8.90554 4.67886C9.00744 4.50578 9.15382 4.36314 9.32947 4.26574C9.50513 4.16835 9.70365 4.11975 9.90444 4.12501C10.1052 4.13026 10.3009 4.18917 10.4713 4.29562L13.4713 6.17062C13.6332 6.27171 13.7668 6.41236 13.8594 6.57932C13.952 6.74629 14.0006 6.93407 14.0006 7.125C14.0006 7.31593 13.952 7.50371 13.8594 7.67068C13.7668 7.83764 13.6332 7.97829 13.4713 8.07938L10.4713 9.95437C10.3009 10.0608 10.1052 10.1197 9.90444 10.125C9.70365 10.1302 9.50513 10.0817 9.32947 9.98426C9.15382 9.88686 9.00744 9.74422 8.90554 9.57114C8.80364 9.39806 8.74993 9.20085 8.75 9Z" fill="#E58934"/>
</svg>
